<?xml version="1.0" standalone="no"?>
<!DOCTYPE svg PUBLIC "-//W3C//DTD SVG 1.1//EN" "http://www.w3.org/Graphics/SVG/1.1/DTD/svg11.dtd" >
<svg xmlns="http://www.w3.org/2000/svg">
<metadata>Generated by IcoMoon</metadata>
<defs>
<font id="icomoon" horiz-adv-x="1024">
<font-face units-per-em="1024" ascent="960" descent="-64" />
<missing-glyph horiz-adv-x="1024" />
<glyph unicode="&#x20;" horiz-adv-x="512" d="" />
<glyph unicode="&#xe900;" glyph-name="arrow-big" horiz-adv-x="1715" d="M1222.132-64h-55.248v9.049c-0.002 0.512-0.003 1.118-0.003 1.724 0 146.265 60.157 278.479 157.078 373.252l0.097 0.094 10.002 9.526c35.104 33.090 75.045 61.63 118.517 84.335l2.935 1.395 10.002 5.001h-1465.511v55.248h1465.511l-10.002 5.001c-50.435 26.239-93.732 57.985-131.506 95.308l0.053-0.052c-97.018 94.867-157.175 227.081-157.175 373.346 0 0.606 0.001 1.212 0.003 1.817v-0.094 9.049h55.963v-9.049c0-0.174 0-0.381 0-0.588 0-131.455 54.149-250.262 141.359-335.334l0.096-0.094c87.284-86.125 207.25-139.317 339.64-139.317 0.819 0 1.637 0.002 2.454 0.006h8.209v-55.248h-9.049c-0.692 0.004-1.51 0.006-2.328 0.006-132.39 0-252.356-53.192-339.694-139.37l0.053 0.053c-87.306-85.165-141.455-203.973-141.455-335.427 0-0.207 0-0.413 0-0.62v0.032z" />
<glyph unicode="&#xe901;" glyph-name="arrow-small-short" d="M527.005 960h-56.505v-8.982c0-141.72 56.639-275 159.446-375.205l9.969-9.477c36.942-34.253 78.144-63.032 122.582-85.742l10.125-5.028-772.622 0.015v-55.163l772.622-0.017-10.126-4.996c-48.478-24.775-93.105-56.77-132.55-95.217-102.807-100.205-159.446-233.485-159.446-375.205v-8.982h56.505v8.982c0 127.001 50.723 246.359 142.864 336.168 92.148 89.818 214.63 139.267 344.96 139.267h9.171v55.163h-9.171c-130.327 0-252.81 49.451-344.96 139.269-92.141 89.809-142.864 209.167-142.864 336.168v8.982z" />
<glyph unicode="&#xe902;" d="M1024 448c0-282.77-229.23-512-512-512s-512 229.23-512 512c0 282.77 229.23 512 512 512s512-229.23 512-512z" />
<glyph unicode="&#xe903;" d="M750.933 171.74l-130.202 54.393h-279.398c-37.703 0-68.267 30.564-68.267 68.267v358.4c0 37.703 30.564 68.267 68.267 68.267h341.333c37.703 0 68.267-30.564 68.267-68.267v-481.060z" />
<glyph unicode="&#xe904;" d="M661.816 387.788c7.786 5.312 18.404 3.306 23.716-4.48s3.306-18.404-4.48-23.716c-104.601-71.361-221.133-71.361-346.742-0.78-8.217 4.617-11.136 15.022-6.518 23.239s15.022 11.136 23.239 6.518c114.762-64.486 217.406-64.486 310.785-0.78z" />
<glyph unicode="&#xe905;" glyph-name="close" d="M1014.722 889.727l-441.742-441.695 441.742-441.758-60.996-60.996-441.727 441.774-441.727-441.774-60.996 60.996 441.742 441.758-441.742 441.695 60.996 60.996 441.727-441.711 441.727 441.711 60.996-60.996z" />
<glyph unicode="&#xe906;" glyph-name="facebook" d="M728.816 449.767h-148.093v-496.725h-200.827v496.725h-105.716v179.701h105.716v104.853c0 34.814-21.086 212.213 232.723 212.213h126.637v-169.096h-92.851c-20.469 0-65.682-6.289-65.682-43.117v-104.853h169.055l-20.962-179.701z" />
<glyph unicode="&#xe907;" glyph-name="instagram" d="M704 960c176.704 0 320-143.296 320-320v0-384c0-176.704-143.296-320-320-320v0h-384c-176.704 0-320 143.296-320 320v0 384c0 176.704 143.296 320 320 320v0zM704 864h-384c-123.52 0-224-100.48-224-224v0-384c0-123.52 100.48-224 224-224v0h384c123.52 0 224 100.48 224 224v0 384c0 123.52-100.48 224-224 224v0zM512 704c-141.376 0-256-114.624-256-256s114.624-256 256-256c141.376 0 256 114.624 256 256s-114.624 256-256 256zM512 288c-88.192 0-160 71.808-160 160 0 88.256 71.808 160 160 160s160-71.744 160-160c0-88.192-71.808-160-160-160z" />
<glyph unicode="&#xe908;" glyph-name="minus" d="M1024 512v-128h-1024v128z" />
<glyph unicode="&#xe909;" glyph-name="play" d="M42.667 960v-1021.721l926.603 510.861z" />
<glyph unicode="&#xe90a;" glyph-name="plus-small" d="M576 960v-448h448v-128h-448v-448h-128v448h-448v128h448v448h128z" />
<glyph unicode="&#xe90b;" glyph-name="plus" d="M1007.484 416l-463.476 0.025-0.008-463.509h-64l0.025 463.509-463.509-0.025v64l463.509 0.008-0.025 463.476h64l0.008-463.476 463.476-0.008v-64z" />
<glyph unicode="&#xe90c;" glyph-name="Twitter" d="M911.224 654.429c0.407-8.828 0.611-17.724 0.611-26.654 0-272.212-207.193-586.086-586.095-586.086-116.329 0-224.611 34.124-315.746 92.593 16.095-1.935 32.495-2.92 49.133-2.92 96.5 0 185.326 32.936 255.816 88.179-90.15 1.664-166.209 61.22-192.422 143.050 12.597-2.377 25.466-3.667 38.776-3.667 18.743 0 36.943 2.513 54.26 7.232-94.225 18.879-165.224 102.169-165.224 201.96 0 0.849 0 1.732 0 2.581 27.741-15.415 59.523-24.685 93.308-25.771-55.278 36.942-91.644 99.995-91.644 171.469 0 37.757 10.153 73.138 27.877 103.561 101.593-124.646 253.405-206.646 424.571-215.236-3.497 15.076-5.331 30.797-5.331 46.959 0 113.781 92.255 205.933 206.004 205.933 59.251 0 112.764-24.99 150.352-65.023 46.926 9.236 90.999 26.416 130.794 50.015-15.382-48.113-48.046-88.451-90.592-113.951 41.697 4.957 81.39 16.026 118.333 32.426-27.605-41.322-62.511-77.62-102.781-106.651z" />
<glyph unicode="&#xe90d;" glyph-name="menu" horiz-adv-x="2285" d="M501.828 180.132h1322.384v-101.722h-1322.384v101.722zM149.192 736.212h1993.748v-101.722h-1993.748v101.722z" />
<glyph unicode="&#xe90e;" glyph-name="phone" d="M994.133 477.867h-68.267v98.133c0 68.267-55.467 128-128 128h-29.867v162.133c0 51.2-42.667 93.867-93.867 93.867h-452.267c-51.2 0-93.867-42.667-93.867-93.867v-226.133h-34.133c-51.2 0-93.867-42.667-93.867-93.867 0-34.133 17.067-64 46.933-81.067-8.533-12.8-12.8-29.867-12.8-46.933 0-34.133 17.067-64 46.933-81.067-8.533-12.8-12.8-29.867-12.8-46.933 0-34.133 21.333-64 46.933-81.067-8.533-12.8-12.8-29.867-12.8-46.933 0-29.867 12.8-55.467 34.133-72.533v-59.733c-8.533-51.2 34.133-93.867 85.333-93.867h448c25.6 0 46.933 8.533 68.267 25.6 17.067 17.067 25.6 42.667 25.6 68.267v34.133h34.133c59.733 0 110.933 42.667 123.733 98.133h68.267c17.067 0 29.867 12.8 29.867 29.867v256c4.267 17.067-8.533 29.867-25.6 29.867zM315.733 900.267h260.267v-34.133c0-17.067-17.067-34.133-34.133-34.133h-192c-17.067 0-34.133 12.8-34.133 34.133v34.133zM59.733 546.133c0 17.067 17.067 34.133 34.133 34.133h34.133v-68.267h-34.133c-17.067 0-34.133 12.8-34.133 34.133zM93.867 413.867c0 17.067 17.067 34.133 34.133 34.133h98.133c17.067 0 34.133-17.067 34.133-34.133s-17.067-34.133-34.133-34.133h-98.133c-21.333 0-34.133 17.067-34.133 34.133zM123.733 285.867c0 17.067 17.067 34.133 34.133 34.133h64c21.333 0 34.133-12.8 34.133-34.133 0-17.067-17.067-34.133-34.133-34.133h-64c-17.067 0-34.133 17.067-34.133 34.133v0zM157.867 157.867c0 21.333 12.8 34.133 34.133 34.133s34.133-17.067 34.133-34.133c0-17.067-17.067-34.133-34.133-34.133s-34.133 17.067-34.133 34.133zM708.267 29.867c0-17.067-17.067-34.133-34.133-34.133h-452.267c-17.067 0-34.133 17.067-34.133 34.133v34.133c0 0 0 0 0 0 51.2 0 93.867 42.667 93.867 93.867 0 17.067-4.267 34.133-12.8 46.933 17.067 12.8 46.933 38.4 46.933 81.067 0 25.6-8.533 46.933-25.6 64 17.067 17.067 25.6 38.4 25.6 64 0 51.2-42.667 93.867-93.867 93.867h-34.133v358.4c0 17.067 17.067 34.133 34.133 34.133h34.133v-34.133c0-51.2 42.667-93.867 93.867-93.867h192c51.2 0 93.867 42.667 93.867 93.867v34.133h34.133c17.067 0 34.133-17.067 34.133-34.133v-162.133h-162.133c-17.067 0-29.867-12.8-29.867-29.867 0-106.667 85.333-192 192-192v0-452.267zM964.267 221.867h-68.267c-17.067 0-29.867-12.8-29.867-29.867 0-38.4-29.867-68.267-68.267-68.267h-29.867v388.267c0 17.067-12.8 29.867-29.867 29.867h-34.133c-59.733 0-115.2 42.667-128 102.4h221.867c38.4 0 68.267-29.867 68.267-68.267v-128c0-17.067 12.8-29.867 29.867-29.867h68.267v-196.267zM507.733 115.2h-119.467c-17.067 0-29.867-12.8-29.867-25.6s12.8-25.6 29.867-25.6h123.733c17.067 0 29.867 12.8 29.867 25.6s-17.067 25.6-34.133 25.6z" />
<glyph unicode="&#xe90f;" glyph-name="pin" horiz-adv-x="811" d="M405.333 960c221.867 0 405.333-179.2 405.333-396.8 0-145.067-136.533-354.133-405.333-627.2-268.8 273.067-405.333 482.133-405.333 627.2 0 217.6 183.467 396.8 405.333 396.8zM405.333 729.6c-93.867 0-170.667-72.533-170.667-166.4s76.8-166.4 170.667-166.4 170.667 72.533 170.667 166.4-76.8 166.4-170.667 166.4z" />
<glyph unicode="&#xe910;" glyph-name="arrow-down-big" horiz-adv-x="612" d="M0 230.116v32.996h5.404c0.341 0.001 0.745 0.002 1.149 0.002 87.315 0 166.239-35.929 222.793-93.809l0.058-0.060 5.689-5.973c19.732-20.979 36.773-44.829 50.36-70.773l0.84-1.761 2.987-5.973v875.236h32.996v-875.236l2.987 5.973c15.703 30.11 34.659 55.963 56.925 78.544l-0.036-0.037c56.613 57.94 135.536 93.869 222.851 93.869 0.404 0 0.808-0.001 1.212-0.002h5.341v-33.422h-5.404c-0.086 0-0.189 0-0.291 0-78.526 0-149.5-32.338-200.329-84.424l-0.055-0.057c-51.435-52.107-83.204-123.735-83.204-202.783 0-0.509 0.001-1.018 0.004-1.527v0.079-4.978h-32.996v5.404c0.002 0.43 0.004 0.939 0.004 1.449 0 79.048-31.768 150.676-83.234 202.813l0.030-0.031c-50.885 52.142-121.858 84.48-200.385 84.48-0.102 0-0.205 0-0.307 0h0.016z" />
<glyph unicode="&#xe911;" glyph-name="arrow-left-big" horiz-adv-x="1715" d="M492.473 960h55.248v-9.049c0.002-0.571 0.004-1.247 0.004-1.924 0-146.202-60.16-278.354-157.076-373.049l-0.1-0.097-10.002-9.526c-35.127-33.039-75.062-61.574-118.503-84.324l-2.948-1.406-10.002-5.001h1465.511v-55.248h-1465.511l10.002-5.001c50.416-26.293 93.706-58.033 131.515-95.317l-0.062 0.061c97.016-94.793 157.176-226.944 157.176-373.146 0-0.677-0.001-1.353-0.004-2.029v0.105-9.049h-55.963v9.049c0 0.144 0 0.316 0 0.487 0 131.486-54.147 250.325-141.36 335.435l-0.095 0.092c-87.248 86.124-207.184 139.318-339.543 139.318-0.853 0-1.705-0.002-2.557-0.007l0.132 0.001h-8.335v55.248h9.049c0.72-0.004 1.573-0.006 2.425-0.006 132.359 0 252.295 53.193 339.594 139.368l-0.051-0.051c87.308 85.202 141.455 204.042 141.455 335.528 0 0.171 0 0.343 0 0.514v-0.027z" />
<glyph unicode="&#xe912;" glyph-name="ada" horiz-adv-x="948" d="M643.306 125.216c-49.227-104.933-159.445-180.623-287.961-188.553-184.742-11.377-342.687 124.96-354.652 301.289-8.799 130.57 67.058 248.102 181.476 304.862l7.366-76.349c-71.624-44.662-122.25-132.576-116.051-224.094 9.132-134.833 131.849-244.748 274.63-235.879 138.281 8.4 230.102 100.075 248.966 216.008l46.227-97.285zM204.285 845.469c-2.6 7.27-4.233 14.984-4.866 22.984-3.166 47.397 34.029 88.382 83.089 91.366 49.127 3.048 91.421-32.889 94.587-80.287 3.2-47.397-33.962-88.35-83.122-91.43-4.633-0.222-10.065-0.444-12.032 0l17.698-203.907h247.567v-70.921h-241.101l5.866-65.81h329.722l143.014-309.115 119.017 51.683 29.496-60.985-183.509-79.271-153.079 328.258h-350.053l-42.294 467.434z" />
<glyph unicode="&#xe913;" glyph-name="eho" horiz-adv-x="948" d="M0 683.667l474.599 276.333 473.549-276.333v-106.533h-74.88v-349.114h-800.496v349.114h-72.772v106.533zM472.368 835.649l-290.036-170.869v-329.075h584.291v329.075l-294.254 170.869zM638.935 504.409v-104.415h-329.047v104.415h329.047zM638.935 528.817h-329.047v101.247h329.056v-101.247h-0.009zM162.311 97.399c-5.268-3.159-8.436-5.277-14.762-5.277-22.148 0-37.97 20.039-37.97 41.138 0 25.316 15.822 41.138 35.861 41.138 23.207 0 35.861-17.93 35.861-40.079 0-11.604-3.159-17.93-8.436-27.425l9.495-8.436-9.495-9.495-10.554 8.436zM151.72 108.956l-5.277 7.386 9.495 7.386 6.327-6.327c1.059 7.386 2.109 14.772 2.109 18.98 0 13.713-9.495 22.148-20.039 22.148s-17.93-8.436-17.93-24.257c0-16.881 11.604-25.316 25.316-25.316v0zM294.067-9.022c0 22.148 16.871 39.029 35.861 39.029 21.089 0 36.911-17.93 36.911-41.138 0-25.316-15.822-41.138-35.861-41.138-20.039 0.009-36.911 15.822-36.911 43.247v0zM329.881 14.054c-9.495 0-18.98-9.495-18.98-25.316s9.495-25.316 20.039-25.316c10.545 0 18.98 10.545 18.98 25.316s-8.436 25.316-20.039 25.316zM534.483 174.388c22.148 0 36.911-17.93 36.911-40.079 0-25.316-14.762-42.188-35.861-42.188-20.039 0-35.861 16.881-35.861 42.188s14.781 40.079 34.811 40.079zM554.738 133.25c0 16.881-9.495 25.316-20.039 25.316s-17.93-9.495-17.93-25.316c0-15.822 7.386-25.307 20.039-25.307 11.594 0 17.93 9.485 17.93 25.307zM260.408 95.159l26.366 76.989h18.98l26.366-76.989h-15.822l-5.268 14.762h-29.534l-5.268-14.762h-15.822zM296.222 148.987l-9.495-23.207h17.93l-8.436 23.207zM873.052 122.706h13.713c-2.109-10.545-5.268-14.772-14.762-14.772-11.604 0-18.98 9.495-18.98 24.257 0 15.822 8.436 25.316 20.039 25.316 9.495 0 13.713-5.268 18.98-13.713h10.545c0 13.713-8.436 28.475-30.584 28.475-21.089 0-35.861-14.762-35.861-42.188 0-21.089 13.713-37.97 31.634-37.97 5.268 0 11.604 2.109 22.148 7.386l3.168-6.327h10.545v41.138h-30.584v-11.604zM839.431 27.814l24.257-46.405v-31.643h14.762v31.643l27.425 46.405h-17.93l-16.871-29.534-14.772 29.534h-16.871zM652.666 119.547c2.109-15.822 10.545-27.425 31.643-27.425 17.93 0 30.584 10.545 30.584 25.316 0 7.386-4.218 14.772-10.545 16.881l-20.039 7.386c-10.545 4.218-11.604 7.386-11.604 9.495 0 3.159 3.168 7.386 10.545 7.386 6.327 0 9.495-3.159 14.762-11.604h12.663c0 13.713-6.327 26.366-26.366 26.366-14.772 0-28.484-10.545-28.484-24.257 0-8.436 6.327-15.822 16.871-20.039l17.93-6.327c6.327-2.109 7.386-4.218 7.386-7.386 0-3.159-3.159-8.436-11.604-8.436-6.327 0-12.653 4.218-18.98 12.653l-14.762-0.009zM759.33 95.159h15.822v45.346l31.643-45.346h14.762v76.989h-14.762v-48.514l-31.643 48.514h-15.822v-76.989zM637.857 27.814v-78.048h14.772v45.356l31.634-45.356h14.772v78.048h-14.772v-48.514l-31.634 48.514h-14.772zM422.879 95.159h15.822v32.693h29.525v-32.693h15.822v76.989h-15.822v-27.416h-29.525v27.416h-15.822v-76.989zM393.27-50.235v78.048h29.525c15.822 0 27.425-8.436 27.425-22.148 0-4.218-2.109-11.604-7.386-20.039 6.327-10.545 8.436-15.822 9.495-35.861h-15.822c-1.059 13.713-3.159 17.93-9.495 28.475h-16.871v-28.475h-16.871zM410.094 11.852v-17.93h14.762c5.268 0 9.495 3.159 9.495 8.436s-4.218 9.495-9.495 9.495h-14.762zM193.851 172.242v-46.405c0-21.098 10.545-32.693 28.475-32.693 18.99 0 28.484 12.653 28.484 32.693v46.405h-15.831v-46.405c0-9.495-2.109-16.881-12.663-16.881-9.495 0-12.653 7.386-12.653 16.881v46.405h-15.812zM471.337 27.814v-15.822h20.039v-62.227h15.822v62.227h21.098v15.822h-56.959zM766.547 27.814v-15.822h21.089v-62.227h15.822v62.227h20.039v15.822h-56.95zM585.097 172.279v-48.514c0-18.98 10.545-31.643 27.425-31.643 17.93 0 28.475 9.495 28.475 31.643v48.514h-15.822v-47.455c0-10.545-3.168-16.881-11.604-16.881s-12.653 6.327-12.653 16.881v47.455h-15.822zM551.438 27.898v-53.791c0-16.871 11.594-26.366 27.416-26.366 17.93 0 28.475 10.545 28.475 28.475v51.682h-15.822v-49.573c0-9.495-3.168-15.822-11.604-15.822-9.495 0-12.663 7.386-12.663 16.871v48.514l-15.803 0.009zM138.054 27.814h29.525c14.762 0 25.316-10.545 25.316-25.316 0-20.039-15.822-26.366-39.029-26.366v-26.366h-15.822v78.048h0.009zM153.735 11.852v-17.93h13.713c4.218 0 8.436 3.159 8.436 8.436s-4.218 9.495-8.436 9.495h-13.713zM46.18 95.159h54.841v13.713h-39.020v20.039h33.752v13.713h-33.752v16.871h39.020v12.653h-54.841v-76.989zM342.525 172.148v-76.989h49.573v14.762h-33.752v62.227h-15.822zM728.709 27.814h15.822v-78.048h-15.822v78.048zM725.428 172.148h15.822v-76.989h-15.822v76.989zM39.591-8.562c0 22.148 16.871 39.029 35.861 39.029 21.089 0 36.911-17.93 36.911-41.138 0-25.316-15.822-41.138-35.861-41.138s-36.911 15.822-36.911 43.247v0zM75.405 14.504c-9.495 0-18.98-9.495-18.98-25.307 0-15.822 9.495-25.316 20.039-25.316s18.98 10.545 18.98 25.316c0 14.762-8.436 25.307-20.039 25.307zM218.793 27.814h29.525c14.772 0 25.316-10.545 25.316-25.316 0-20.039-15.822-26.366-39.020-26.366v-26.366h-15.822v78.048zM234.483 11.852v-17.93h13.713c4.218 0 8.436 3.159 8.436 8.436s-4.218 9.495-8.436 9.495h-13.713z" />
<glyph unicode="&#xe914;" glyph-name="arrow-left-small-short" d="M496.83-64h56.51v9.102c0 0.116 0 0.254 0 0.391 0 147.081-61.023 279.909-159.133 374.546l-10.017 9.631c-35.509 32.848-75.767 61.366-119.441 84.252l-3.060 1.46-10.24 4.93h772.551v55.372h-772.551l10.24 4.93c50.715 26.381 94.29 58.095 132.48 95.309l-0.118-0.115c98.266 94.788 159.289 227.615 159.289 374.696 0 0.138 0 0.275 0 0.413v-0.021 9.102h-56.51v-9.102c0-0.185 0-0.405 0-0.624 0-131.659-54.631-250.558-142.461-335.265l-0.141-0.135c-88.328-86.094-209.17-139.196-342.415-139.196-0.953 0-1.905 0.003-2.857 0.008l0.146-0.001h-9.102v-55.372h9.102c0.805 0.005 1.757 0.007 2.711 0.007 133.245 0 254.087-53.101 342.519-139.296l-0.104 0.101c87.971-84.842 142.602-203.741 142.602-335.399 0-0.219 0-0.439 0-0.658v0.034z" />
<glyph unicode="&#xe915;" glyph-name="arrow-top-small-short" d="M0 463.17v-56.51h9.102c0.116 0 0.254 0 0.391 0 147.081 0 279.909 61.023 374.546 159.133l9.631 10.017c32.948 35.469 61.477 75.739 84.275 119.471l1.437 3.029 4.93 10.24v-772.551h55.372v772.551l4.93-10.24c26.313-50.738 58.035-94.321 95.297-132.468l-0.103 0.106c94.788-98.266 227.615-159.289 374.696-159.289 0.138 0 0.275 0 0.413 0h9.081v56.51h-9.102c-0.138 0-0.301 0-0.463 0-131.709 0-250.659 54.629-335.428 142.464l-0.132 0.138c-86.092 88.272-139.197 209.065-139.197 342.262 0 1.007 0.003 2.013 0.009 3.019l-0.001-0.155v9.102h-55.372v-9.102c0.005-0.851 0.008-1.857 0.008-2.864 0-133.197-53.104-253.99-139.295-342.363l0.099 0.101c-84.901-87.973-203.851-142.602-335.56-142.602-0.163 0-0.325 0-0.488 0h0.025z" />
<glyph unicode="&#xe916;" glyph-name="share" horiz-adv-x="1109" d="M552.428 194.13l68.126 250.108-30.076 2.289c0 0-7.413 0.572-20.669 0.572-84.185 0-359.654-21.84-518.594-290.779 8.298 143.406 53.748 259.734 135.442 346.3 155.439 164.748 394.34 167.559 396.732 167.572l32.568 0.050-63.528 233.155c-0.137 0.498-0.262 0.983-0.386 1.468 0.411-0.274 0.835-0.56 1.258-0.871l501.338-349.497c3.563-2.488 4.859-4.788 4.859-5.721 0-0.945-1.296-3.246-4.859-5.721l-501.338-349.534c-0.436-0.286-0.86-0.585-1.258-0.858 0.125 0.485 0.249 0.97 0.386 1.468zM1083.169 595.292l-501.325 349.509c-28.78 20.062-57.125 20.273-72.237 0.572-9.905-12.96-11.687-31.48-5.258-55.036l46.858-172c-74.704-6.194-263.558-36.268-400.657-181.415-110.885-117.411-160.945-281.936-148.76-489.022l6.578-111.901 41.451 104.177c125.749 315.977 403.834 354.111 506.272 356.972l-51.742-189.947c-6.429-23.569-4.647-42.089 5.258-55.049 15.088-19.701 43.445-19.452 72.237 0.572l501.325 349.521c16.633 11.604 26.164 28.557 26.164 46.529 0 17.96-9.531 34.912-26.164 46.517z" />
<glyph unicode="&#xe917;" glyph-name="arrow-bottom-small-short" d="M1024 432.83v56.51h-9.102c-0.116 0-0.254 0-0.391 0-147.081 0-279.909-61.023-374.546-159.133l-9.631-10.017c-32.948-35.469-61.477-75.739-84.275-119.471l-1.437-3.029-4.93-10.24v772.551h-55.372v-772.551l-4.93 10.24c-26.313 50.738-58.035 94.321-95.297 132.468l0.103-0.106c-94.788 98.266-227.615 159.289-374.696 159.289-0.138 0-0.275 0-0.413 0h-9.081v-56.51h9.102c0.138 0 0.301 0 0.463 0 131.709 0 250.659-54.629 335.428-142.464l0.132-0.138c86.092-88.272 139.197-209.065 139.197-342.262 0-1.007-0.003-2.013-0.009-3.019l0.001 0.155v-9.102h55.372v9.102c-0.005 0.851-0.008 1.857-0.008 2.864 0 133.197 53.104 253.99 139.295 342.363l-0.099-0.101c84.901 87.973 203.851 142.602 335.56 142.602 0.163 0 0.325 0 0.488 0h-0.025z" />
</font>
</defs>
</svg>
