<svg xmlns="http://www.w3.org/2000/svg" viewBox="0 0 18.6 30.32"><defs><style>.cls-1,.cls-2{fill:none;stroke:#fff;stroke-miterlimit:10;}.cls-2{stroke-width:0.5px;}</style></defs><title>asd</title><g id="Capa_2" data-name="Capa 2"><g id="Capa_1-2" data-name="Capa 1"><line class="cls-1" x1="0.38" y1="1.46" x2="4.67" y2="6.5"/><line class="cls-1" x1="18.19" y1="1.08" x2="14.58" y2="6.33"/><line class="cls-2" x1="8.98" x2="8.98" y2="5.98"/><line class="cls-2" x1="9.28" x2="9.28" y2="5.98"/><path class="cls-2" d="M18.19,14.46c0-4-4-7.32-8.91-7.32S.38,10.42.38,14.46a7.14,7.14,0,0,0,4.25,6.23v3a.75.75,0,0,0,.75.74h8.46a.74.74,0,0,0,.74-.74V20.33A7,7,0,0,0,18.19,14.46Z"/><rect class="cls-2" x="4.71" y="25.23" width="9.97" height="1.19" rx="0.58"/><rect class="cls-2" x="4.71" y="27.06" width="9.97" height="1.19" rx="0.58"/><rect class="cls-2" x="6.25" y="28.88" width="6.89" height="1.19" rx="0.58"/><path class="cls-2" d="M7.64,24.42V18.7s.24-4.48,0-4.48S2.28,14.87,5.42,17c2.79,1.46,4.93,1.37,7.76.37,2.33-1,1.81-2.93-1.39-3.11a.16.16,0,0,0-.16.16c0,5.94-.06,5.94-.06,5.94"/><line class="cls-2" x1="11.6" y1="18.99" x2="11.54" y2="24.42"/></g></g></svg>