<svg xmlns="http://www.w3.org/2000/svg" viewBox="0 0 65.09 32.34"><defs><style>.cls-1{fill:none;stroke:#fff;stroke-miterlimit:10;stroke-width:0.5px;}</style></defs><title>Recurso 6</title><g id="Capa_2" data-name="Capa 2"><g id="Capa_1-2" data-name="Capa 1"><path class="cls-1" d="M37.22,29.66H27.15a5.2,5.2,0,0,1,.42-4.47H17.33a5.33,5.33,0,0,1,.41,4.47H6.57a1.21,1.21,0,0,0-1.21,1.21v1.22H38.43V30.87A1.21,1.21,0,0,0,37.22,29.66Z"/><path class="cls-1" d="M42.12.25H2.32A2.07,2.07,0,0,0,.25,2.32V20.76a2.07,2.07,0,0,0,2.07,2.07h39.8a2.07,2.07,0,0,0,2.07-2.07V2.32A2.07,2.07,0,0,0,42.12.25ZM41.91,20a1.36,1.36,0,0,1-1.36,1.36H3.76A1.36,1.36,0,0,1,2.4,20V3.23A1.36,1.36,0,0,1,3.76,1.87H40.55a1.36,1.36,0,0,1,1.36,1.36Z"/><path class="cls-1" d="M63.57.51h-13a1.27,1.27,0,0,0-1.28,1.27V29.52a1.27,1.27,0,0,0,1.28,1.27h13a1.27,1.27,0,0,0,1.27-1.27V1.78A1.27,1.27,0,0,0,63.57.51Zm0,25.94a.76.76,0,0,1-.75.75H51.3a.75.75,0,0,1-.74-.75v-23a.75.75,0,0,1,.74-.75H62.82a.76.76,0,0,1,.75.75Z"/><circle class="cls-1" cx="57.06" cy="29.12" r="0.97"/><circle class="cls-1" cx="22.22" cy="9.72" r="3.69"/><path class="cls-1" d="M25.29,12.22a4.46,4.46,0,0,1-3.07,1.23,4.4,4.4,0,0,1-2.85-1A7.74,7.74,0,0,0,17,17.05H27.49S27.31,13.84,25.29,12.22Z"/><circle class="cls-1" cx="57.06" cy="12.65" r="2.44"/><path class="cls-1" d="M59.09,14.31a2.94,2.94,0,0,1-2,.81,3,3,0,0,1-1.89-.69,5.07,5.07,0,0,0-1.59,3.07h7A4.92,4.92,0,0,0,59.09,14.31Z"/></g></g></svg>