<svg xmlns="http://www.w3.org/2000/svg" viewBox="0 0 49.19 32.67"><defs><style>.cls-1{fill:none;stroke:#fff;stroke-miterlimit:10;stroke-width:0.5px;}</style></defs><title>Recurso 5</title><g id="Capa_2" data-name="Capa 2"><g id="Capa_1-2" data-name="Capa 1"><path class="cls-1" d="M36.16,30.59h-7.6a4.27,4.27,0,0,1-.24-1.32,4,4,0,0,1,.56-2.06H21.15a4,4,0,0,1,.54,2.09,4.2,4.2,0,0,1-.23,1.29H13a.92.92,0,0,0-.92.91v.92h25V31.5A.92.92,0,0,0,36.16,30.59Z"/><path class="cls-1" d="M46.64.25H2.55a2.3,2.3,0,0,0-2.3,2.3V23a2.3,2.3,0,0,0,2.3,2.3H46.64a2.3,2.3,0,0,0,2.3-2.3V2.55A2.3,2.3,0,0,0,46.64.25Zm-.23,21.89a1.51,1.51,0,0,1-1.51,1.52H4.14a1.52,1.52,0,0,1-1.51-1.52V3.56A1.52,1.52,0,0,1,4.14,2H44.9a1.51,1.51,0,0,1,1.51,1.52Z"/><rect class="cls-1" x="19.26" y="16.18" width="10.68" height="1.56" rx="0.78"/><polygon class="cls-1" points="24.71 3.85 19.7 12.13 21.61 16.08 27.81 16.08 29.72 12.13 24.71 3.85"/><line class="cls-1" x1="24.71" y1="3.85" x2="24.71" y2="11.84"/><rect class="cls-1" x="21.82" y="17.74" width="5.82" height="4.11"/></g></g></svg>