<svg id="Capa_1" data-name="Capa 1" xmlns="http://www.w3.org/2000/svg" viewBox="0 0 376.92 500.56"><defs><style>.cls-1{fill:#7a96ab;}.cls-2{fill:#ab9f71;}.cls-2,.cls-3{stroke:#ab9f71;stroke-miterlimit:10;}.cls-3{fill:none;stroke-width:2px;}</style></defs><title>mapa-bue</title><path class="cls-1" d="M27.15,79.71l77.06-1.61a4,4,0,0,0,2.94-1.36l38.24-43s3.28-3.28,4.93-1.64c1.36,1.37,6.12,2.73,7.7,3.15a4,4,0,0,0,1,.14h2.76c3.29,0,6.57-3.29,8.21-6.57s1.64-3.29,1.64-6.57-3.28-4.93,0-4.93,3.29,3.29,4.93,3.29c1.29,0,5.63,4.06,7.43,5.8a4,4,0,0,0,1.84,1c2.27.57,7.52,2.13,8.8,4.68,1.64,3.29,1.64,4.93,3.28,6.57s3.28,1.64,8.21,1.64,4.93-3.28,6.57,0,3.28,4.93,4.93,4.93,4.92-3.28,4.92,0a4.55,4.55,0,0,0,.25,1.51A4,4,0,0,0,228,48.94a8.54,8.54,0,0,1,2.77-.44c3.29,0,6.57,4.93,8.21,6.57A22.67,22.67,0,0,0,245.56,60c3.29,1.64,4.93,1.64,8.21,1.64s6.57-3.28,6.57,0c0,2.47-1.85,6.8-2.78,8.79A4.15,4.15,0,0,1,256.24,72a5.61,5.61,0,0,0-2.47,4.4c0,3.29-1.64,9.85,0,13.14,1.48,3,10.89,11.19,12.8,12.84a3.63,3.63,0,0,0,.73.5c3.39,1.8,27.87,14.81,32.45,17.86,4.93,3.29,9.86,6.57,13.14,11.5s4.93,9.85,4.93,11.49S308,153.6,308,156.89s-3.29,16.42-1.65,21.35,9.86,19.7,13.14,19.7,3.29,0,8.21,1.65a14.93,14.93,0,0,0,2.9.67,4.06,4.06,0,0,1,3.67,4v25.26a4,4,0,0,1-.71,2.28l-20.2,29.53a4.23,4.23,0,0,1-1.05,1.06c-2.16,1.47-9.24,6.4-9.24,7.79,0,1.64-9.85,11.49-9.85,13.14s1.64,8.21-1.65,11.49-32.84,21.35-39.41,23-70.61,21.35-82.11,23-62.4,3.29-69,1.65-11.49-6.57-14.78-8.22A24.71,24.71,0,0,1,82.6,332a4,4,0,0,0-3.07-.75l-4.64.78a4,4,0,0,0-3.38,4c.08,6.55.77,18.3,1.62,22.82.85,5.94,0,4.92,3.29,6.57a17.87,17.87,0,0,0,8.21,1.64c1.64,0,3.28,21.35,1.64,23s-6.57,1.64-8.21,1.64-3.28,0-3.28,6.57,1.64,13.14,0,16.42-8.22,9.85-6.57,13.14,11.49,11.49,9.85,18.06S61.64,464,61.64,464v-1.65s-9.85-13.71-34.49-20.28"/><circle class="cls-2" cx="307.91" cy="162.89" r="12.61"/><circle class="cls-3" cx="307.91" cy="162.89" r="22.2"/></svg>