<svg id="Capa_1" data-name="Capa 1" xmlns="http://www.w3.org/2000/svg" viewBox="0 0 263.52 500.56"><defs><style>.cls-1{fill:#7a96ab;}.cls-2{fill:#102a40;}.cls-2,.cls-3{stroke:#102a40;stroke-miterlimit:10;}.cls-3{fill:none;stroke-width:2px;}</style></defs><title>mapa</title>

<path class="cls-1" d="M77.12,450.62s-5.27-1.62-6.88-1.22-3.24-1.62-4.86-2-17.4,4.05-17.81,3.24a29.29,29.29,0,0,0-3.64-4.86l-1.21-1.21s.4,0,0-1.62a34.87,34.87,0,0,0-1.22-3.64l.81-2.43s2.43-1.22.81-2L41.5,434v-1.62l-1.21-.81H34.62l-.8,1.62a2,2,0,0,1-2.43-1.62c-.41-2-2.43-5.67-2.84-6.48a6.06,6.06,0,0,1-.4-2.83c0-1.21.4-1.62-.4-2.83s-1.22-1.62-.81-2.43,0-1.62.81-1.62.4,1.21,1.61-.81,0-2.43.81-3.64,2.84-3.64,4.45-3.64,1.62.81,1.22-.41-1.62-3.64-2-4.45-.41-.4.4-1.62,2,.81,1.62-2.43S34.22,394,33,393.56s1.21-4.86,1.21-6.07.81-1.22.81-1.62a3,3,0,0,1,.81-1.62c.4-.4,0-1.21.81-1.62s1.21,0,1.21-.4.81-.81-.4-1.62-1.62-.81-1.22-1.62a18.09,18.09,0,0,1,1.62-2.83,4.24,4.24,0,0,0,.81-2c0-.4.41-1.61,0-2.42l-.81-1.62a4.11,4.11,0,0,1-.4-1.22c0-.4-.41-.81-.81-1.21s-.81,0-.41-.81a5.7,5.7,0,0,1,2-1.62l12.95-1.62,22.25-2,3.65-.41s0,4.05.4,4.86,1.62,2.83,2.43,3.24,3.24,2,3.24,2.83.4.81.8.81.81,0,1.22.81a5.54,5.54,0,0,0,3.24,2c.81,0,4,.41,4.85.41s2.43,0,2.43.4.81.81.81,2.83-1.21,4.86-1.21,5.27a2.43,2.43,0,0,0,.4,1.61c.41.41-.4,2-.81,2.43s-7.28,6.88-7.28,6.88A13.48,13.48,0,0,1,85.21,398c-.81.4-4.45,5.26-4.45,5.66s-1.62,4.05-1.62,4.86-.81,2,0,2H80s.4,5.26,0,6.07-8.5,5.67-8.9,6.48A17.45,17.45,0,0,0,68.62,430c-.41,3.64-1.22,3.64-1.22,4s-.81.8,0,1.21,1.22-.41,1.62.4,1.22,3.24,1.62,4.05-.4,2-.4,2.43-1.22.81,0,1.21,3.23,2.84,3.23,2.84a24.15,24.15,0,0,0,1.62,3.23,12.94,12.94,0,0,0,2,1.22"/>
<path class="cls-1" d="M37.46,364,46,362.8l14.56-1.62,17-1.61A26,26,0,0,1,80,355.52c.81-.81,1.21-1.22,1.21-2s1.22-3.65,1.62-3.65,1.62-1.21,1.62-1.21a1.74,1.74,0,0,1,1.21-.41h1.62c.41,0,.41,0,.41-.8s2.83-2.43,3.23-2.84.41-.81,1.22-.4.4.81,1.21.81a22.7,22.7,0,0,0,2.84-.41s1.21,0,.8-.81,0-.81-1.21-1.21-.4-.41-.4-.81.4-2.43.81-2.43,2-1.62,2.42-1.62.81-.4.81-1.21v-6.88c0-.4.81-1.62,0-2a5.08,5.08,0,0,1-1.21-.81l2.83-4.86a17.45,17.45,0,0,0,.41-2c0-.41-1.22-.41,0-.81s2.83-1.62,3.23-1.62a13.34,13.34,0,0,0,2.43-1.21l1.22-.81s-3.24-1.22-4.46-1.62-2.42-1.22-2.42-1.62V311a8.7,8.7,0,0,1,2-1.21,8.92,8.92,0,0,0,2-1.21h2s1.21,1.62,1.61,2,.81,2,1.62,2.43,3.65-.81,4-.81,1.21-2,1.21-2.43V307c0-.81-.4-1.22-.4-2s0-1.61-.81-2-2.43-.81-2.83-.4-1.22,1.62-.81,2.42,0,1.62,0,2-5.47.2-5.47.2-.4-1.21,0-1.21,1.22-.41.81-.81,0-.41-.81-.41a12,12,0,0,1-4-1.21l-1.22-1.22c-.4-.4-23.87,1.22-23.87,1.22l-24.69,2L28,308.37v1.22s-2-1.62-2.83,0,.4,4.05.4,4.05v5.26c0,.4.81,1.61.81,2a8.92,8.92,0,0,0,1.21,2l.41.41s2.43-.81,2.83.81-1.62,2.42-1.62,2.42l2,3.24s0-.4.4.41a3.18,3.18,0,0,1,0,2l-.4.81s1.61.4,1.61,1.21-.81,2-.81,2.84v4h6.88s.81,4.45.41,5.26-.81.41-2.83.41H32.8a4.12,4.12,0,0,0-1.21.4l-.4-.4s-.81-.41-.81.4.4,1.22.4,1.62.41,0,2,0a15.15,15.15,0,0,1,3.24.41,4.74,4.74,0,0,1,.81,1.21c.41.81,0,.81.81,1.21s.81,1.22,1.21,1.22.41,0,.41.4v1.62a.9.9,0,0,0-1.22.41c-.4.81-.8,1.21-.8,1.62s-.81.8-.81.8a1.24,1.24,0,0,0-.81.41c-.41.4-.81.4-.81,1.21A5.4,5.4,0,0,0,36,362.2a14.74,14.74,0,0,0,1.62,2"/>
<path class="cls-1" d="M28.35,306l14.57-1.22,17-1.62,22.25-1.61,17-.81a36.79,36.79,0,0,0,0-6.88c-.4-2.43-1.21-5.26-1.62-5.67s0-4.86,1.62-4.86a19.75,19.75,0,0,1,9.31,2.43,26.27,26.27,0,0,0,6.07,2.84,15.36,15.36,0,0,0,4.45,0c1.62-.41,3.24-1.22,3.64-1.22s.81-.81.81-.81-3.64-3.24-6.07-3.24c-.4-16.59-.81-17.8-.81-17.8s.41-2,0-2.43-1.21-.81-1.62-1.21-3.24-2.84-3.64-2.84a25.32,25.32,0,0,0-11.74-2.83H88.65a15.51,15.51,0,0,1-4.45,0c-1.62-.4-.81-.4-2-.81a4.27,4.27,0,0,1-1.61-.81,3.33,3.33,0,0,0-2.84-2.42c-2.43-.41-3.23-.81-3.64-1.22s0-.81-.4-1.21a1.26,1.26,0,0,1-.41-.81s0-.41-1.21,0-1.62.81-2,.81-1.21.4-1.61-.41-1.22-1.21-1.22-1.62-.81-.81-1.21-.81-1.22.81-1.22-.4-.4-1.62,0-2,1.22-.81,1.22-1.22.81-1.21.81-1.21l-.41-1.22-.4-.4h-4l1.21,19.42s-1.21,1.62-1.61,1.62a10.08,10.08,0,0,0-3.24,2.84,21.56,21.56,0,0,0-1.62,2.83c0,.4.4,1.62-.41,1.62s-3.23.81-3.23,1.21-2.84,4.86-6.48,5.26c-.81,1.22-.81,4.86-.81,4.86s-1.21,3.23-2,3.64a19.45,19.45,0,0,1-3.64,1.21,17.32,17.32,0,0,0-2.83,1.62,5.7,5.7,0,0,0-2,1.62,2,2,0,0,0,0,1.62l.41.81s0,1.21-.41,1.62L34,293.4c-.41.41-.81,1.22-1.62,1.22s-1.62-.41-2.43-.41-2-.4-2.43-.4A1.83,1.83,0,0,0,26.33,295c0,.41.4,4.45.4,4.45v.41c0,.4.41,1.62,0,1.62s-1.21.8-.4.8a2.83,2.83,0,0,1,1.62.81V306Z"/>
<path class="cls-1" d="M24.71,289.36s1.21,2.83,1.62,2.83h2c.41,0,.81-.41,1.22,0s.81.81,1.21.81,1.21-.81,1.62-.81S33.61,291,33.61,291l-.4-1.61v-1.22s0-.81.4-.81,4-4.05,5.26-4.05a14.29,14.29,0,0,0,2.43-.4,2.44,2.44,0,0,0,2-1.62c.4-1.21,0-3.64.4-4.05s.81-2,1.21-2.42.41-1.22,1.22-1.22A9.65,9.65,0,0,0,49,272.36s2.83-3.24,3.24-3.64.81-.81,1.21-.81a1.49,1.49,0,0,0,1.22-.41c.4-.4,1.21-.81,1.21-1.62a4.26,4.26,0,0,1,.81-2.42c.4-.41,4.86-4.46,4.86-4.46l-.81-12.54-.41-6.07H59.11c-.81,0-.81-.81-1.62-1.21s-1.22-.81-1.62-.81,0-.41-.81-.41H51a9.16,9.16,0,0,1-.4-1.62c0-.4-.41-.4-.81-.81s-1.62,0-2.43,0h-2a9.86,9.86,0,0,1-3.64-1.62c-.41-.4.4,0,0-1.21s0-2-.41-2-2-.81-2-1.22-1.62-.81-1.62-1.21,0-.81-.4-.81S36,226.23,36,226.23V225l-1.21-.4s0-2-.41-2.43,0-.81-.4-.81-2.83.81-2.83,2v2.84a.56.56,0,0,0-.81,0,3.14,3.14,0,0,1-1.62.81c-.41,0-.81,2-1.22,2.42a3.14,3.14,0,0,0-.81,1.62c0,.41-.4.41,0,1.22A13.21,13.21,0,0,1,28,234.72v1.62c0,.41-.81,1.22-.81,2A2.1,2.1,0,0,0,28,240a3.08,3.08,0,0,1,.81,1.61c0,.41-.81.81-.81,1.62a3.09,3.09,0,0,0,.4,2,35.15,35.15,0,0,1,2,3.64,11.74,11.74,0,0,1,.81,3.24,3.42,3.42,0,0,0,.8,2.42c.41.41.81,0,1.22.81s.81,1.22.4,2a25.82,25.82,0,0,1-2.83,3.23s-2.83.81-2.83,1.62v2c0,.8.81,2.42.4,2.42s-.4,2.84-.4,2.84a1.26,1.26,0,0,1-.41.81.55.55,0,0,0,0,.8l.41.41v1.62a3.14,3.14,0,0,0-2,0c-.8.4-.8,2-.4,2.43l1.21,1.21a5.51,5.51,0,0,1,.81,1.21,2,2,0,0,0-1.21.41c-.41.4-.41,1.62-.41,1.62s-.8,0-.8.4.4,1.62.8,1.62.41,0,.81.41.41,2,.41,2a4.11,4.11,0,0,1-1.22.4c-.4,0-.8.81-.8.81Z"/>
<path class="cls-1" d="M61.94,238.77H67.2s2.43,1.62,1.22,3.64-1.62,2-1.22,2.43.41.81.81.81.81,0,.81.41a3,3,0,0,0,.81,1.61c.4.41.81.41,1.62,0s.81-1.21,1.62-.81,2.42.41,2.42,1.62,3.65,2,3.65,2a4.39,4.39,0,0,1,2.83,2c.81,1.62.4,1.62,1.21,1.62h19a9.07,9.07,0,0,1,6.48,1.21c3.23,2,7.69,5.26,7.69,5.26l-.41-27.92-.81-32H97.15v15.38l-36.83,1.21Z"/>
<path class="cls-1" d="M125.07,285.71s0-2.43-6.07-4c-.41-12.55-.41-13.76-.41-13.76l-.81-29.54-.8-24.28-.41-22.67L136,191l9.71-10.93s.81-.81,1.21-.4a7,7,0,0,0,2,.81h.81a2.71,2.71,0,0,0,2-1.62,2.46,2.46,0,0,0,.4-1.62c0-.81-.81-1.21,0-1.21s.81.81,1.22.81,2,1.61,2,1.61,2,.41,2.43,1.22.4,1.21.81,1.62.81.4,2,.4,1.21-.81,1.62,0,.81,1.22,1.21,1.22,1.22-.81,1.22,0a1.49,1.49,0,0,0,.81,1.21,1.76,1.76,0,0,1,1.21-.4c.81,0,1.62,1.21,2,1.61a5.66,5.66,0,0,0,1.62,1.22,3.71,3.71,0,0,0,2,.4c.81,0,1.61-.81,1.61,0a8.23,8.23,0,0,1-.8,2.43,1.51,1.51,0,0,0-.81,1.22c0,.8-.41,2.42,0,3.23a23.76,23.76,0,0,0,3.23,3.24s6.88,3.64,8.1,4.45a11,11,0,0,1,3.23,2.83,7.09,7.09,0,0,1,1.22,2.84c0,.4-2.43,2.42-2.43,3.23s-.81,4.05-.4,5.26,2.42,4.86,3.23,4.86a4.39,4.39,0,0,1,2,.41c1.21.4,1.61,0,1.61,0v7.68L187,236.34s-2.42,1.62-2.42,2-2.43,2.83-2.43,3.23.4,2-.41,2.84-8.09,5.26-9.71,5.66-17.4,5.26-20.23,5.67-15.38.81-17,.4-2.83-1.62-3.64-2a5.08,5.08,0,0,1-1.21-.81l-2.43.4s0,5.67.4,6.48,0,1.21.81,1.62a4.44,4.44,0,0,0,2,.4c.41,0,.81,5.26.41,5.67s-1.62.4-2,.4-.81,0-.81,1.62.4,3.24,0,4.05-2,2.43-1.62,3.23,2.83,2.84,2.43,4.46-4.05,4.45-4.05,4.45Z"/>
<path class="cls-1" d="M79.75,214.49H95.53l-1.22-32.37s-.81-8.1-.81-8.5,0,0,.41-.41a5.79,5.79,0,0,0,.81-2.42c0-.41,0-1.62.4-2a2.08,2.08,0,0,0,.81-1.62c0-.81,0-4.85-.4-4.85H92.7a1.3,1.3,0,0,1-1.22-1.22v-1.61c0-.41-1.62-1.22-2.43-1.62s-2-1.22-2-1.22a4.06,4.06,0,0,1-1.21.41H83c-.4,0,0-.41-.4-.41A2.4,2.4,0,0,0,81,157c-.4.4-1.62.4-2.43.4a17.38,17.38,0,0,1-2-.4,9.16,9.16,0,0,0-1.62.4H67.2s-.4,0-.4.81.4,3.64.4,4a5.87,5.87,0,0,0,.81,2.43c.41.4,0,1.61.41,2a5.72,5.72,0,0,1,.8,1.21,17,17,0,0,0,.81,2.84,13.75,13.75,0,0,1,.41,3.64s.4,3.24.4,3.64a8.72,8.72,0,0,0,1.62,2.43,5.64,5.64,0,0,1,.81,2.43,1.47,1.47,0,0,0,.41,1.21c.4.4.81.4,1.21.81a6.92,6.92,0,0,1,.81,2,2.56,2.56,0,0,1,.4,2.43,13.44,13.44,0,0,0,0,4,4.39,4.39,0,0,0,.81,2.43c.41.4,1.62,2,2,2.42s.81,1.22.81,4Z"/>
<path class="cls-1" d="M60.32,238.77l-2-22.66,19.42-1.21s.41-12.14.41-12.55,0-2.83-.81-3.64a14.93,14.93,0,0,1-2.43-2.83,5.83,5.83,0,0,1-.81-2.43V189c0-.41.81,0,0-1.22s-1.21-1.21-1.62-2-.81-.81-.81-1.62-.4-1.21-.4-1.62-.41-.81-.81-1.21-.41-.81-.81-1.22a14.15,14.15,0,0,1-1.21-4.45v-4.85c0-.81-.41-1.22-.41-1.62a1.51,1.51,0,0,0-.4-1.22c-.41-.4-.81-.4-.81-.81s-.41-1.21-.41-1.61.41-.41,0-.81,0-1.22-.81-1.22-1.21-.4-2-.4H60.32c-.4,0-.81.4-1.21-.41s0-2-.81-2a2.83,2.83,0,0,0-1.62.81l-3.24.4s-.4,1.22-1.21,1.22-3.64-.41-3.64-.41a17.1,17.1,0,0,0-2.43-.81c-.41,0-.41,0-.81-.4s-.81-.41-1.22-.81-.8.4-.8.81-2.43,0-2.84.4-1.21.81-1.21,1.22v1.21l-.81.81a11.2,11.2,0,0,0-2.43.41l-3.24.8s-.81-.8-.81-.4.41.4.41.81a1.44,1.44,0,0,0,.4.81v1.21l.41,2.43h1.21c.81,0,2.84.41,2.43,2s-2,2.43-2.43,3.24-.4,1.22.41,1.62,1.21-.4,2.43,0,1.21.81,1.21,1.62a14.16,14.16,0,0,1-.41,2.43.88.88,0,0,0-.4,1.21,4.74,4.74,0,0,0,.81,1.21v.81c0,.41-.41.81-.41,1.22s-.4,1.21,0,2a5.31,5.31,0,0,0,.81,1.22V191c0,.81.41,1.21,0,2s.41,1.22-.81,1.22-1.61-.81-1.61-.41.4,2.43,0,2.84-1.22.8-1.22,1.21-.81,1.62-.81,2.43-.4,2.83-.4,3.23-.41,3.65-.41,3.65.41-.41-.4,0A3,3,0,0,0,32,208.42l.81.81c.41.4.81,0,.81.81a8.09,8.09,0,0,0,.41,2s-.41,1.62,0,2l.81.81a.55.55,0,0,1,0,.8c-.41.41-.41,0-.41.81v1.62a1.43,1.43,0,0,1,.41.81c0,.41.81,1.22.81,1.62a17.38,17.38,0,0,0,.4,2s0,.81.41.81,1.21,0,1.21.41-.4,1.21,0,1.62-.4,1.21.4,1.21a14.16,14.16,0,0,1,2.43.41,5.83,5.83,0,0,0,.81,1.61c.41.41.81.41,1.22.81s.81,0,.81.41.4,3.64.8,3.64H50.2c.41,0,1.62,1.21,2,2s.81.81,1.21.81,2-.4,2.83,0,3.65,2.43,3.65,2.43Z"/>
<path class="cls-1" d="M96.74,199.52l18.21-.41v-9.3h6.88L134,169.57s.41-1.21-.4-1.62-1.22-3.64-1.22-3.64a.56.56,0,0,0,0-.81l-.81-.81-3.23-4v-2.43a.39.39,0,0,0,.4-.41c0-.4.41,0,0-.81s-.81-.81-.81-1.21-.4-1.21,0-1.62.41-.81.81-1.21,3.24-9.31,3.24-9.71.4-1.22.4-1.62a1.4,1.4,0,0,0-.4-.81l-1.62-1.22a12.65,12.65,0,0,1-1.62-2.42c0-.41-.4-1.22,0-1.62s.41-1.62.41-2,.81-2,.4-2.43,0,0-.4-.8,0-1.22-.41-1.62a6.18,6.18,0,0,1-.81-1.22l-1.21-.81s-12.55.81-13,.41l-.81-.81c-.41-.41,0-.81-.81-.81h-4.45s-1.22-.81-2-1.21a5.81,5.81,0,0,1-1.61-1.62h-1.62c-1.22,0-3.64,1.62-4,1.62s-1.62-.41-2,0l-.81.8s.4,4.86,0,4.86-1.22.41-1.22.81-1.61,1.21-1.61,1.21l-2,1.22a7.44,7.44,0,0,0-1.21,1.62c-.41.81-3.24,10.52-3.24,10.92v3.65s.41,3.23.41,3.64v2.83c0,.4-.41.4.4.81a5.46,5.46,0,0,0,2,.4s1.22,1.62,1.62,1.62a5.86,5.86,0,0,1,1.62.81l.81.81s-.4,2.43.81,2.43a14.69,14.69,0,0,1,2.43.4c.4,0,1.21,1.22,1.21,1.62v4.05c0,.4.41,1.62,0,2a6.18,6.18,0,0,0-.81,1.22l-.4,2.42a9.22,9.22,0,0,0-.41,1.62v4.45L96.34,189l.4,10.52h0"/>
<path class="cls-1" d="M31.19,164.72,30,162.29s-.4-.41.41-.81.81-2.83.4-2.83H29.16c-.4,0-.81,0-.81-.41a2.47,2.47,0,0,0-.4-1.62c-.41-.4-.81-1.21-1.22-1.62s-.4-2.42-.4-2.83v-2c0-.81-.41-1.22.4-1.22h1.62a2.83,2.83,0,0,0,.81-1.61c0-.81-.4-2.84-.4-3.24s0-2.43.4-2.83a6.77,6.77,0,0,0,.81-2l2.43-2s.81-.41.81-.81.4-2,.4-2.43.41-.81,0-1.21-.4-.81-.81-.81,0-1.22,0-1.62.41-1.22.41-1.62S32,127.49,32,127.49a11.53,11.53,0,0,0-.4-3.24c-.4-.81,0-1.22-.4-1.62s0-.81,0-1.21-.81,0,0-.81.8-1.22,1.21-1.62a6,6,0,0,0,.81-1.62s0-1.62.4-2-.4-.41,0-1.22a3.11,3.11,0,0,0,0-2v-.41c0-.4-.4,0,0-.4s0-.81.41-1.21a1.27,1.27,0,0,0,.4-.81s2.84,0,4,1.21a9.11,9.11,0,0,0,2,1.62l.41,1.62.4.4c.41.41,1.22.41,1.22.81s.81.41.81,2.43-.41,5.26-.41,5.26a4.12,4.12,0,0,0-.4,1.21c0,.41.4.81.4,1.22s0,1.21.41,1.21h4.85A6.51,6.51,0,0,1,53,127.89a32.27,32.27,0,0,1,4,4c.41.4,1.62.4,2,.81S60.32,134,60.73,134s.81-.4.81.81,0,1.21.4,1.62l5.67,5.66a8.39,8.39,0,0,1,.4,2v1.21l.41,2s.4,2,.4,2.42v1.62a1.51,1.51,0,0,0,.4,1.22l.81.81a2,2,0,0,0,1.22.4s.4-.4.4.4v1.62s-4.85-.81-5.26-.4a3.07,3.07,0,0,0-.81,1.62,17.38,17.38,0,0,0-.4,2v2.43s-4.45.4-4.45,0-.41-.81-.81-1.22,0-2-.81-1.61a9.26,9.26,0,0,1-2.84.4l-.8.81c-.41.4-.81,0-1.62,0a1.81,1.81,0,0,0-1.22.4,10.46,10.46,0,0,1-2,.81c-.41,0-3.24-.4-3.64-.81s-1.22-.8-1.62-1.21a1.51,1.51,0,0,0-1.22-.4c-.4,0-1.61-.41-1.61,0s-.41.81-.41,1.21-.81.4-1.62.4a4.15,4.15,0,0,0-1.62.41,8.92,8.92,0,0,0-1.21,2c0,.41,0,.41-.4.81s-2,.41-3.24.81a7.05,7.05,0,0,1-2,.41Z"/>
<path class="cls-1" d="M172.82,185.35s-2.83-.4-2.83-.81-1.62-2-1.62-2a1.25,1.25,0,0,1-.81-.4c-.41-.41-2.43-.41-2.43-.41s-.4-.81-.81-.81a4.12,4.12,0,0,1-1.21-.4l-.41-.41a1.27,1.27,0,0,1-.81-.4c-.4-.41-2.42,0-2.42,0s-1.22-2.43-1.62-2.43-3.64-1.62-3.64-2-1.22-2-1.62-2-1.22-.4-1.62-.4-.81,0-1.22-1.21-2-5.67-2-6.07v-3.65a1.47,1.47,0,0,1,.41-1.21c.4-.41.4-.81.4-1.62v-5.66s2.83-.41,3.24-.81,4.45-6.48,4.45-6.48,1.21-2.83,1.62-2.83,2-2.43,2-2.43l1.62-2.83s.81-.81.81-1.22v-2l-.41-1.21s-.81-.81,0-.81h1.62a1.44,1.44,0,0,0,.81.4h1.62s.81-.81,1.21-.81,1.22-.4,1.62-.4h2.43l.81-.41a4.23,4.23,0,0,1,1.62-.4c.81,0,2.83,0,3.24.4s1.62.81,1.62,1.22a10.15,10.15,0,0,0,.81,2.83,23.22,23.22,0,0,0,1.21,2,5.86,5.86,0,0,0,1.62.81c.4,0,0,2-.41,2.43a1.5,1.5,0,0,0-.4,1.21c0,.41-.41,2.43-.41,2.84a3.07,3.07,0,0,1-.81,1.62,5.35,5.35,0,0,0-1.21,2c0,.4-.4,1.21,0,1.62a3,3,0,0,1,.81,1.62c0,.4-1.21.81-1.21,1.21a3.11,3.11,0,0,1-.81,1.62,3,3,0,0,0-.81,1.62c0,.4.4,3.24.4,3.24v2.42c0,.41-.81.81-.81,1.22s.41,1.62.41,2V172s-1.62-.4-2,.4a16.54,16.54,0,0,0-.81,2.43,6,6,0,0,1-.8,1.22c-.41.4,0,.4-.41,1.21s-.4,4.86-.4,4.86Z"/>
<path class="cls-1" d="M181.32,134.77l-1.62-3.64a6.58,6.58,0,0,0-2.43-1.22,25.71,25.71,0,0,1-3.64-.81l-2.43.81h-2.83s-1.22,0-1.62.41,0,.81-1.21.81-1.22-.41-2-.41a8.09,8.09,0,0,0-2,.41h-.41l.81-2s.41-2.42,0-2.83a2.45,2.45,0,0,1-.4-1.62c0-.4.4-.81.4-1.21a17.45,17.45,0,0,0,.41-2,18.09,18.09,0,0,1,.4-2c0-.4,3.65-4,4.05-4.85a25.92,25.92,0,0,0,1.62-3.65c0-.4.4-2.83.4-3.23s.41-5.67.41-5.67,0-.4.81-.4,1.21-1.62,1.62-1.62.4-.81.4-.81.41-3.64.41-4v-4s2.83-1.62,3.64-1.62h2.83c.41,0,2-.41,2.83,0a9.26,9.26,0,0,0,2.84.4l1.21.81s.4.81.81.81,1.62-.4,2,0,1.62.41,1.62.41a.79.79,0,0,0,.81.8,17,17,0,0,1,2,.41c.41,0,1.22-.81,2-.81a4.23,4.23,0,0,1,1.62.4.4.4,0,0,0,.4.41c.41,0,.81-.41,1.21-.41h.81a2,2,0,0,1,1.22.41c.4.4-1.22,0,.4.81l1.62.81,1.22-.41.8-1.21a6,6,0,0,1,.81-1.62c.41-.4.41-.81.81-.81s.81,0,.81.41v2c0,.4,1.22,2.43,1.22,3.24a6.54,6.54,0,0,0,1.21,2.42,8.21,8.21,0,0,1,.41,2,4.23,4.23,0,0,0,.4,1.62s1.21.81.4.81-1.61.81-2,1.21-1.62.4-2,1.21a8.29,8.29,0,0,0-.81,2.43,7.51,7.51,0,0,1-2.43,2.83,3.1,3.1,0,0,1-1.21.41v1.21a2.11,2.11,0,0,1-.81,1.62c-.41.41-1.22.41-2,1.22s-1.61,2.83-2,3.23l-3.64,3.65c-.41.4-2.43,1.61-2.83,2s-1.22,1.62-2,2.43-3.64,5.26-4.45,5.66a18.41,18.41,0,0,0-2.83,2.84Z"/>
<path class="cls-1" d="M208,91.88l.14.35.67,1.67.4,1.21s0,1.22.41,1.22.8,1.21.8,1.21l.41,1.62.4,1.21s0,1.22.41,1.22a17.45,17.45,0,0,0,2-.41l.81-.81,1.22-1.21a6,6,0,0,0,.8-1.21l1.22-.81s3.64-2,4-2.43a23.44,23.44,0,0,1,2.42-1.62s1.62,0,2-.41,2.43-.4,2.43-.4,1.21-.4,1.21-.81,1.62-1.62,2-1.62,1.62-1.21,1.62-1.21l1.62-1.22s.81-.81.81-1.21-.41-.81,0-1.21.4-3.65.4-4-.4-1.22,0-1.62,0-2,.41-2,.81-.81.81-.81v-.81c0-.41,0-1.22-.41-1.22s-.4-.81-.81-1.21a5.93,5.93,0,0,1-.81-1.21s-.4-3.24-.4-3.65v-.81l-.81-.8c-.4-.41,0-.81-.81-.81h-2.43c-.81,0-1.62,1.21-1.62,1.21s0,.81-.4.81a1.47,1.47,0,0,1-1.21-.41c-.41-.4-.41-.4-.81-.4s-.41.4-.41.81v2.43c0,.4-.4.4-.4,1.21v3.24l-.41,2a1.44,1.44,0,0,0-.4.81c0,.41-.41.81-.81,1.62s-.81,1.21-.81,1.62.4,1.62,0,1.21-1.62,0-1.62,0v1.62a1.74,1.74,0,0,1-1.21.41h-1.22s-.81,1.62-1.21,1.62a17.64,17.64,0,0,0-2,.4s-1.61,0-1.61.4a8.78,8.78,0,0,1-1.22,2s.81,1.62,0,2a12.93,12.93,0,0,1-2.43,1.22c-.4,0-.81.4-1.61.4a1.51,1.51,0,0,1-1.22-.81S207.62,91.07,208,91.88Z"/>
<path class="cls-1" d="M123.86,189.81l11.33-.41,9.3-10.93s2-.4,2.43-.4a4.11,4.11,0,0,1,1.22.4l1.21.41.81-.81c.4-.4.4-1.62.4-1.62v-.81a.4.4,0,0,0,.41-.4c0-.41-.81-.41-.81-.81s-3.24-3.24-3.64-6.07a20.36,20.36,0,0,1-.41-3.64v-2.84a25.71,25.71,0,0,0,.81-3.64c0-.81.41-5.26.41-5.66s-.41-.41,0-.41.4-.4.81-.4.8.4,1.21,0l3.64-3.65c.41-.4.41-1.21.81-1.61s4.86-7.29,5.26-7.69,1.62-1.62,1.62-2,.4-3.23,0-3.23-.4-.41-.81-.81-.4,0-.4-.81.81-2.84.81-3.24v-1.62c0-.4-.41-.81-.41-1.21v-1.22c0-.4.41-.4.41-.81s.4-.4.4-1.21,0-3.64.4-4,4.46-5.66,4.46-5.66a38.35,38.35,0,0,1,1.21-3.64,6.08,6.08,0,0,0,.4-2.84c0-1.21.41-4,.41-4.45s-.41-1.21,0-1.21,1.62,0,1.62-.41.81-.81.81-.81h-34.4l-1.21,9.72L132.76,123s-.81,8.5-1.22,8.91a8.5,8.5,0,0,0-.81,2.43,4.06,4.06,0,0,1,.41,1.21c0,.4,1.62,1.62,2,1.62s1.22.4,1.22.81a17.45,17.45,0,0,1-.41,2l-2.43,9.71s-.4,2.43-.81,2.43a.87.87,0,0,0-.8.81v1.62c0,.4.4.4.4,1.21v2s0-.41.4.4,2,4,2.43,4,1.22.81,1.22.81v2.83l.81.81s1.21,0,1.21.4-.4,1.62-.4,2a29.64,29.64,0,0,1-2,3.64Z"/>
<path class="cls-1" d="M70.44,151c0,.4,0,.81.4.81a4.11,4.11,0,0,1,1.22.4s1.21,0,1.21.41v1.21l.41.81.81.81H84.2c.4,0,1.62,0,1.21-.41a3,3,0,0,1-.4-2c0-.81-.41-5.66-.41-6.47v-2.84c0-.4.41-.81.41-1.62s2-6.87,2-7.28.4-.81.81-1.62a5.46,5.46,0,0,0,.4-2l.41-.41,1.21-.81s.41-.81.81-.81.81-.4.41-.4-7.69-7.69-7.69-8.09-.41-.41-.41-1.22-2.42-3.64-3.23-4a33.69,33.69,0,0,1-3.24-2.43s-2-2-2-2.43-.41-.81-.41-1.21-.4-.41-.4-.81-.41-1.62-.81-1.62-3.65-.81-4.05-.81-.4-.41-.81-.41a4.35,4.35,0,0,0-2,.41,6.1,6.1,0,0,1-2.43.4c-.41,0-.81-.81-1.22-.81a5.92,5.92,0,0,0-1.61.81,1.51,1.51,0,0,1-1.22.81c-.81,0-2,0-2.43-.4s-.81-.41-1.21-.81a3.14,3.14,0,0,1-.81-1.62c0-.4-4.05-.81-5.26-1.21A2.85,2.85,0,0,1,48.18,102v-1.62s0-.81-1.62-.81-6.07.41-6.07.41l-2.43,3.64-.4,1.21-.81.41-.4.81-.81.81v1.21h2a1.47,1.47,0,0,1,1.21.41c.41.4,1.62.81,1.62,1.21s.81,1.21.81,1.21a15.11,15.11,0,0,0,1.22,1.62l.81.81.8.81c.41.41.41,1.22.81,1.22s.41.81.41.81v1.61c0,.41.4,1.22,0,1.62a2.43,2.43,0,0,0-.41,1.62v1.22a4.12,4.12,0,0,1-.4,1.21v.81s-.41.4,0,.4,1.21-.4,1.62-.4,2-.41,2,0,.81.4,1.22.4h.8s1.62-.4,1.62,0,.81.81,1.22.81a17.06,17.06,0,0,1,3.23,2.43c.41.41,1.62,2.43,2,2.43a6,6,0,0,1,1.62.81,13,13,0,0,1,2,1.21A17.35,17.35,0,0,1,63.15,134s0,1.22.41,1.62S66,138,66.39,138s1.22,1.21,1.62,1.62.81,1.21,1.21,1.62.81.4.81,1.21.41,1.21,0,1.62,0,1.21,0,1.62S70.44,151,70.44,151Z"/>
<path class="cls-1" d="M136,98h34.39s.81-5.27.41-5.67a2,2,0,0,1-.41-1.21L172,89.45l1.22-1.22-.41-.81v-.81a5.72,5.72,0,0,0,1.21-.8,6.77,6.77,0,0,0,.81-2l.81-1.21-.81-1.22-2.42-2a3.17,3.17,0,0,1-1.22-.4c-.81-.41-1.21-.41-1.21-.81s-1.62-2.84-2.84-2.43-2.42.4-2.83,0,0-.81-.4-1.22-.81-.4-.81-.81a1.39,1.39,0,0,0-.41-.8h-1.21c-1.21,0-2,0-2-.41V71.24a10.3,10.3,0,0,0-1.62-2.84c-.41-.4-2-1.21-2.43-1.61a5.41,5.41,0,0,0-2-1.22c-.41,0-.41-2-.81-2.43s-1.22-.81-1.22-1.21-.81-.81-.81-1.21,0-.41-.4-.81-8.09-5.26-8.09-5.26a2,2,0,0,0-.41-1.22c-.4-.4-.4-.81-.81-1.21s-.81-.81-1.21-.81H138c-.81,0-1.22-.81-1.62-1.62s-.4-1.21-1.21-1.62a20.21,20.21,0,0,0-2-.81s-1.62,0-1.62-.4-1.21-1.22-1.61-1.62-.41-.41-1.22-.41-1.62.41-1.62,0v1.62l-2,4.05L115,64.36h20.64Z"/>
<path class="cls-1" d="M93.5,116.56l1.22,2.83.81.81c.4.41,1.62.81,2,.41a6.78,6.78,0,0,1,2.43-1.22h1.62c.4,0,2-1.21,2-.81s2.43.81,2.83,1.22.81.4.81.81,1.62,1.21,2,1.21h2a10.41,10.41,0,0,1,2.83.81c.41.4.81.81,1.22.81h13l1.21,1.21c.41.41.41,1.62.41,1.62l.4.41a1.44,1.44,0,0,0,.4-.81V121l2.43-15.38.81-9.3V66H105.64a8.69,8.69,0,0,0-2-1.22A1.83,1.83,0,0,0,102.41,66a28,28,0,0,1-1.22,3.23,5,5,0,0,0-.81,2V76.5s-.4,2.43-.4,2.83-2.43,3.24-2.43,4a9.65,9.65,0,0,1-1.21,2.83l-.41,1.21s-.81,3.24-1.21,3.24-1.22.81-1.22.81v1.62a9.22,9.22,0,0,0,.41,1.62,8.09,8.09,0,0,0-.41,2c0,.81-.4,2-.8,2s-.41.81-.41.81l.41,2,.4,4.45a9.16,9.16,0,0,0-.4,1.62v1.62s.8,0,.8,1.21Z"/>
<path class="cls-1" d="M91.89,127.49l-4-4.86S85,119.8,85,119.39v-1.21l-.41-.81-4-3.64-3.24-2.43-.41-.81a5.51,5.51,0,0,0-.81-1.21,6.18,6.18,0,0,1-.81-1.22v-.81a1.44,1.44,0,0,0-.4-.81l-.81-.81-3.64-.81a1.25,1.25,0,0,1-.81-.4,1.27,1.27,0,0,0-.81-.4l-1.21.4h-4a1.4,1.4,0,0,1-.81-.4H61.54s-.81.8-1.22.8-1.62.41-2,.41-.41-.41-.81-.41a.86.86,0,0,1-.81-.8V102.8l-.41-.4s-2.42-.41-2.83-.41a9.4,9.4,0,0,1-1.62-.4,1.39,1.39,0,0,0-.81-.41.87.87,0,0,1-.81-.81V97.54s.41-.4-.4-.4h-2l-.41.4L40.9,98a8.2,8.2,0,0,1,.81-2.43,2,2,0,0,0,.4-1.22l.81-1.62.41-1.61a.4.4,0,0,1,.4-.41c.4,0,0-.81.4-.81s.41-.4.81,0,.81.41.81.81,0,.41.41.41a1.43,1.43,0,0,0,.81-.41,1.4,1.4,0,0,0,.4-.81V89h.81c.41,0,.41-.4.81-.4s.81-.41,1.21-.81a1.49,1.49,0,0,0,.41-1.22V85a13.52,13.52,0,0,0-1.21-2l-1.62-1.62L47,80.14a.4.4,0,0,1-.41-.41,4.12,4.12,0,0,0-.4-1.21s0-1.21.4-1.21.41,0,.81-.41.81-.4.81-.81V74.88c0-.41.41-1.22.41-1.62a9.22,9.22,0,0,0-.41-1.62,1.27,1.27,0,0,0-.4-.81c-.41-.4-.81-2-1.22-2.43a2,2,0,0,1-.4-1.21l-.41-2.43V63.14a4.06,4.06,0,0,1,.41-1.21H47a1.76,1.76,0,0,0,1.21.4H70.84s0-.4.41,0,0,.41.4.81a2,2,0,0,1,.41,1.22s0,1.62-.41,1.62H68.82c-.4,0-.4.4-.81.81a2,2,0,0,0-.4,1.21v.81c0,.4,1.21,2,1.21,2.43a3.07,3.07,0,0,0,.81,1.62c.4.4.4.8.81,1.21s1.21,1.21,1.21,1.62a6,6,0,0,0,.81,1.62,4.11,4.11,0,0,0,1.22.4h1.61a.4.4,0,0,0,.41-.4c0-.41.4-.41.4-.81a.4.4,0,0,1,.41-.41v.81l-.41.81v1.22a1.39,1.39,0,0,0,.41.8h0a1.24,1.24,0,0,0,.81.41l.81.4.81.41s.4-.41.4,0a.4.4,0,0,0,.41.4s.81.81.81,1.22v1.21a.57.57,0,0,1,0,.81l-.81.81-.81.81-.81.81-.41.81v3.24s0,.81.41.81.81.4,1.21.4.41.81.41.81a1.4,1.4,0,0,1,.4.81,4.06,4.06,0,0,0,.41,1.21,5.73,5.73,0,0,0,.8,1.62c.41.41.81.41.81.81s.81.81,1.22.81,0,.4.4.4.41,0,.41.41-.41.4,0,.81.4,0,.4.4,0,.81.41.81h.81s.81.41,1.21,0,.81,0,.81-.4a1.4,1.4,0,0,1,.4-.81.4.4,0,0,1,.41-.41c.4,0,1.21-.81,1.21-.4a1.43,1.43,0,0,0,.41.81h.4l.41,1.21V106c0,.4.4.81,0,1.21a.56.56,0,0,0,0,.81v1.62c0,.41.4.41.4.81v1.62s.41,0,.41,1.21v3.24a4.12,4.12,0,0,1,.4,1.21A4,4,0,0,0,92.7,119s.8.81.8,1.21.41.81.41,1.22v4.45a4.15,4.15,0,0,1-.41,1.62.39.39,0,0,1-.4.4c-.4,0-.4-.4-.81-.4Z"/>
<path class="cls-1" d="M85.82,99.16,85.41,98s.41-.81,0-.81-.4-.41-.81-.41-1.21-.81-1.21-.81l-1.62-2-.41-1.22v-.8l-.8-1.22s-1.22-.81-1.22-1.21v-.81l.81-1.22s1.21,0,1.62-.4.81-3.24.81-3.24a9,9,0,0,1-.41-1.62,2.47,2.47,0,0,0-.4-1.62l-1.21-1.21s-.81-.81-1.22-.81a9.4,9.4,0,0,1-1.62-.4,9.22,9.22,0,0,0,.41-1.62c0-.41-.41-.81,0-.81s2,.4,2.43.4h2a2.47,2.47,0,0,0,1.62-.4c.4-.41,0-1.62,0-1.62s-.41-.41.4-.41h4.45s.41.81.81.81a4,4,0,0,1,1.22.41,8.27,8.27,0,0,0,2,.4,8.27,8.27,0,0,0,2-.4s2-.41,2.43-.41a4,4,0,0,1,1.22.41v3.24c0,.4-.81.81-.81,1.21s-1.22.81-1.22,1.21-.4,1.22-.4,1.62-.41.41-.41.81.41,1.22,0,1.22a.87.87,0,0,0-.81.81,4.12,4.12,0,0,1-.4,1.21,4.06,4.06,0,0,0-.41,1.21c0,.41.41,1.22,0,1.22a2.43,2.43,0,0,0-1.61.4,6.77,6.77,0,0,0-.81,2v1.21a4.06,4.06,0,0,1-.41,1.21s-.81.41-.4.81,0,.41.4.81.81,0,.81.81,0,1.22-.4,1.22H88.65a2,2,0,0,0-1.22.4,17.35,17.35,0,0,0-1.21,1.62Z"/>
<path class="cls-1" d="M172,77.31a8.92,8.92,0,0,0,2,1.21c.41,0,.81.81,1.22,1.21A15.11,15.11,0,0,0,176.87,81l.4-.41c.41-.4,1.22-.81,1.22-1.21V76.5l.4-1.62.41-1.22s1.21-2.42,2-2.42.81,0,1.21-.41a5.57,5.57,0,0,0,.81-1.62,1.74,1.74,0,0,0,.41-1.21,2.46,2.46,0,0,1,.4-1.62,11.21,11.21,0,0,1,1.62-2,1.39,1.39,0,0,1,.81-.41c.4,0,.81,0,.81-.4a1.49,1.49,0,0,0-.41-1.22c-.4-.4-1.61-2.42-2-2.83a5.93,5.93,0,0,1-.81-1.21l-.81.4s-.81.41-.81,0a4.12,4.12,0,0,0-.4-1.21,1.51,1.51,0,0,0-1.22-.81,22.46,22.46,0,0,1-2.83-.41s-.81-.81-1.21-.81a.86.86,0,0,1-.81-.8,1.39,1.39,0,0,0-.41-.81l-4-.41-.81-.81c-.41-.4-7.29-4.85-7.29-4.85s-6.88-4.86-6.88-5.26-.81-.41-1.21-.41H153c-.4,0-.81.41-1.21,0s-.81-.4-1.62-.81-2.43-1.62-3.24-1.62-2.83-.4-3.24-.4-1.61,0-1.61-.41a4.06,4.06,0,0,0-.41-1.21l-.4-1.21V35.22l-2.43-.81A12.68,12.68,0,0,1,135.59,32a1.49,1.49,0,0,0-1.21-.81c-.81,0-.81,0-1.22-.4a5.93,5.93,0,0,1-.81-1.21s-1.62-1.22-2-1.62-2.43-3.65-2.43-3.65-.81-.8-.81-1.21a.39.39,0,0,0-.4-.4l.4,12.14.41,7.28s.81.81,1.21.81a4.11,4.11,0,0,1,1.22.4l.8.41,1.22.4.81.81.81.41,1.62.4.81.41a2,2,0,0,0,.4,1.21A15.11,15.11,0,0,0,138,48.58l.4.4s0,.81.41.81h2.83a.86.86,0,0,1,.81.81,24.35,24.35,0,0,0,1.62,3.24s.81.81,1.21.81,4.45,2.42,4.45,2.83,2,1.62,2.43,2,.81.41.81.81a.87.87,0,0,0,.81.81c.41,0,.81.81.81.81v1.62c0,.4,0,1.21.4,1.21h1.22a15.65,15.65,0,0,0,2.43,2A5.48,5.48,0,0,1,160.28,68l1.21,1.21a1.44,1.44,0,0,1,.4.81c0,.41,0,1.22.41,1.22h2a1.26,1.26,0,0,0,.41.81c.4.4.4,1.21.81,1.61s0,.41.81.41,2.42.4,3.23.4a1.51,1.51,0,0,1,1.22.81s.81.41.81.81.4.41.4.81Z"/>
<path class="cls-1" d="M72.06,60.31H48.18s.41-2,0-2.43l-2-2a2,2,0,0,1-.41-1.21L47,51.81l10.11-6.47,2.43-1.22c.81-.4.81-.81,1.22-1.21a4.31,4.31,0,0,0,.81-2c0-.41-.41-1.62.4-.81s3.24,2.83,3.24,2.83a9,9,0,0,0,2,2c.81.41,2.83.41,3.24.81s2.43.81,2.43,0,.4-3.64.4-4,.41-2.84.41-2.84,0-2,.4-2.42A1.48,1.48,0,0,1,75.29,36c.41,0,1.22.81,1.62,1.21s.41,1.62.41,1.62l.4,2.43.41,1.22,1.21.4,1.22.4A18.8,18.8,0,0,0,81.77,47c.4.4,2.43,2,2.43,2l1.21.81s2.43.4,2.83.4a1.49,1.49,0,0,1,1.22.41c.4.4,1.62.4,1.62.4s0-.4,1.21-.4a14.36,14.36,0,0,0,2.43-.41c.4,0,1.62,1.22,1.62,1.22A6,6,0,0,0,98,50.6l1.21-1.22a13.4,13.4,0,0,1,2.43-1.21s1.62-1.21,1.62-1.62V36.44c0-.41.4-.81,0-1.22L101.6,33.6a17.64,17.64,0,0,0-2-.4c-.4,0-.8,0-.8.4s0,1.22-.41.81a5.93,5.93,0,0,0-1.21-.81l-1.22-.81s-1.21-.4-1.62,0a1.24,1.24,0,0,1-.81.41A4.11,4.11,0,0,1,93.1,32c0-.4,0-1.21-.4-1.21s-.41,0-.81-.4,0-2,0-2l-.41-1.21-.4-.41a10.2,10.2,0,0,1-2.84-.81,1.49,1.49,0,0,1-.4-1.21V23.08a3.1,3.1,0,0,0-.41-1.21,4.08,4.08,0,0,1-.4-1.62,12.76,12.76,0,0,0,1.62-2.43V16.2a1.4,1.4,0,0,0,.4-.81c0-.4,0-.4.41-.4s2-.41,2.43,0a5.83,5.83,0,0,0,1.61.81h1.22l.4,1.21.41.81.4,1.21s.81.81.81,1.22v1.21a.57.57,0,0,0,0,.81c.41.41,0,.81.41.81s.81,0,.81.41,0,1.21.4,1.21.81.81,1.21.4l.81-.81V23.08c0-.81,0-1.21.41-1.62S102,20.25,102,19.84a6,6,0,0,1,.81-1.62s0-1.21.41-1.61,1.21-.81,1.21-1.22a4.06,4.06,0,0,1,.41-1.21.56.56,0,0,1,0-.81c.4-.41,0-.81.4-.41s1.21.41,1.21.81.41.41.81.81a1.26,1.26,0,0,0,.81.41l.41-.81.4-1.22H119v1.62c0,.41,1.21.41,1.21.41s.81-.41.81.4,0,1.62.41,1.62a1.47,1.47,0,0,1,1.21.41,17.35,17.35,0,0,0,1.62,1.21l.81.81.4,27.11L112.93,64.36h-7.29l-.8-.81a1.78,1.78,0,0,0-1.22-.41c-.81,0-1.62,0-1.62.41s-3.23,6.88-3.23,7.69.4,1.62,0,1.62H95.93a2.47,2.47,0,0,0-1.62.4c-.4.4-.4.4-1.21.4s-2,0-2-.4-1.62-1.62-2-1.62-2-.81-2-.4,0,.81-.81.81a3.6,3.6,0,0,1-2-.41c-.81-.4-1.22,0-1.22,0l-.4.41s.81,2.42.4,2.42H80.56a2.83,2.83,0,0,0-1.62-.81c-.81,0-1.22.41-1.62.41H75.7s-.81,0-.81.4,0,1.62-.4,1.62-.41-.81-.81-1.21-2.84-4-2.84-4A5.51,5.51,0,0,0,70,69.62c-.4-.41-.4-2,0-2a9.16,9.16,0,0,0,1.62-.4s.81.4,1.22,0a3.07,3.07,0,0,0,.81-1.62v-2s0-1.62-.41-1.62S72.06,60.31,72.06,60.31Z"/>
<path class="cls-1" d="M61.94,38.05a17.38,17.38,0,0,0,.4-2,9.22,9.22,0,0,1,.41-1.62L63.56,32a16.91,16.91,0,0,0,.81-2.42c0-.41.4-.81.4-1.22A6,6,0,0,0,64,26.72l-.4-.81s-1.22-.81-1.22-1.21.41,0,.81-.41a2,2,0,0,1,1.22-.4v-2c0-.41,2.43-2,2.43-2l.81-1.21L68,17l.81-.4L70,15.8h1.62l1.22-.41.81-1.21V11.35s0-.81.4-.41,1.62.41,1.62.81,0,1.21.4,1.21a4,4,0,0,1,1.22.41l.81.81,1.21.81,1.62.4s.4-.4,2-.4a22.22,22.22,0,0,0,3.65-.41L87,15l-.4,1.21a4,4,0,0,1-.41,1.62c-.4.81-1.21,1.21-.81,1.62s0,2.43,0,2.43.81,2.83.81,3.23.41,1.22.41,1.62-.41.41.4.81,1.21,0,1.62.41,1.62.4,1.62.4v1.22c0,.4-.41,2,0,2.42s.81.41,1.21.81A1.49,1.49,0,0,1,91.89,34c0,.4-.41,1.21.4,1.21h1.62c.4,0,.81-.4,1.21-.4s1.62-.41,1.62.4a1.51,1.51,0,0,0,.81,1.22s1.22.8,1.62.4,0-1.62.81-1.62a1.74,1.74,0,0,1,1.21.41v8.9a1.27,1.27,0,0,1-.4.81A15.11,15.11,0,0,0,99.57,47a1.4,1.4,0,0,1-.8.4,1.49,1.49,0,0,0-1.22.41c-.4.4-.4,1.21-.81,1.21s-.4.4-.81,0a3.07,3.07,0,0,0-1.62-.81c-.4,0-.81.41-1.21.41a1.49,1.49,0,0,0-1.21.4.77.77,0,0,1-1.22,0l-1.21-1.21a.39.39,0,0,1-.41.4c-.4,0-1.21.81-1.62.41s-.8-1.22-1.21-1.22a17.84,17.84,0,0,1-2-.4s0-.81-.41-.81-.4-.81-.81-.81a.4.4,0,0,1-.4-.41,1.74,1.74,0,0,1-.41-1.21,4.23,4.23,0,0,0-.4-1.62s.4,0-.41-.4l-1.61-.81a.4.4,0,0,1-.41-.41c0-.4-.4-3.64-.4-3.64a5.93,5.93,0,0,0-.81-1.21c-.41-.41-.41-.81-.81-1.22L76.1,33.2c-.4-.41-1.21,0-1.61,0s-.81.81-1.22.81a1.83,1.83,0,0,0-1.21,1.21v1.22c0,.4-.41,3.23-.41,3.23s-.4,2.43-.4,2.84,0,1.61-.41,1.61-1.62,0-1.62-.4-2.83-1.62-2.83-2-.4-.41-.81-.81-.81-1.22-1.21-1.22a3,3,0,0,1-1.62-.81Z"/>
<path class="cls-1" d="M80.15,486.43s-.4-2.83-.4-3.24V480c0-.81-.41-3.24-.41-3.24s-.4-2.43-.4-3.24-.41-2-.41-2.83-.4-2.83-.4-4a7.82,7.82,0,0,0-.41-3.24,6.06,6.06,0,0,1-.4-2.42v-3.65l2,3.24s.81,0,.81.41,0,.81-.4.81a4.11,4.11,0,0,0-1.22.4v1.21c0,.81.81,1.62.81,2s0,0,.41.4a2.39,2.39,0,0,0,1.61.41c.41,0,.81,0,.81.4s.41,1.22.41,1.62.81.81.81,1.21,1.21,1.62,1.62,2l1.62,1.62,3.23,3.23s2.84,1.62,3.64,2,1.22.81,2,1.21A22.75,22.75,0,0,1,98.77,482c.4.4,2,.4,2.42.81a5.87,5.87,0,0,0,2.43.81h4c.81,0,1.21,0,.81.4a6.77,6.77,0,0,0-.81,2l-.41.8-2,.81a.4.4,0,0,1-.4.41c-.41,0-.41,0-.81-.41a2,2,0,0,0-1.22-.4,8.92,8.92,0,0,1-2,1.21c-.41,0-2.43,1.62-3.64,1.22s-2-1.22-2.84-1.22a8.27,8.27,0,0,1-2-.4H91.08s-6.07,0-6.88.4-1.22.81-1.62.81a2.45,2.45,0,0,1-1.62-.4c-.4-.41-.81-.81-.81-1.22Z"/>
<circle class="cls-2" cx="185.91" cy="214.49" r="5.51"/>
<circle class="cls-3" cx="185.91" cy="214.49" r="9.7"/></svg>